<svg width="102" height="45" viewBox="0 0 102 45" fill="none" xmlns="http://www.w3.org/2000/svg">
<path d="M11.0488 16.448C9.89675 16.448 8.99008 16.096 8.32875 15.392C7.68875 14.6667 7.36875 13.8453 7.36875 12.928C7.36875 12.1813 7.53942 11.4987 7.88075 10.88C8.24342 10.24 8.73408 9.728 9.35275 9.344C9.97142 8.96 10.6648 8.768 11.4328 8.768C12.0301 8.768 12.5848 8.91733 13.0968 9.216C13.6301 9.51467 14.0568 9.952 14.3767 10.528C14.7181 11.0827 14.8888 11.7547 14.8888 12.544C14.8888 13.2053 14.7181 13.8347 14.3767 14.432C14.0354 15.0293 13.5768 15.52 13.0008 15.904C12.4248 16.2667 11.7741 16.448 11.0488 16.448ZM11.1128 14.368C11.4114 14.368 11.6994 14.2827 11.9768 14.112C12.2541 13.9413 12.5101 13.7067 12.7448 13.408C12.7021 12.96 12.5528 12.4907 12.2968 12C12.0408 11.5093 11.6888 11.0933 11.2408 10.752C10.8141 10.4107 10.3021 10.2507 9.70475 10.272L11.4328 9.664L13.1288 10.688C12.4034 10.432 11.7848 10.4107 11.2728 10.624C10.7608 10.8373 10.3661 11.1573 10.0888 11.584C9.83275 12.0107 9.70475 12.4267 9.70475 12.832C9.70475 13.28 9.84342 13.6533 10.1208 13.952C10.3981 14.2293 10.7288 14.368 11.1128 14.368ZM14.288 36V31.232H19.504V35.36L18.864 36H14.288ZM2.064 39.136C2.61867 39.264 3.17333 39.3707 3.728 39.456C4.28267 39.5627 4.83733 39.616 5.392 39.616C6.24533 39.616 7.00267 39.5093 7.664 39.296C8.34667 39.0827 8.848 38.8693 9.168 38.656L7.856 39.968C8.21867 39.4347 8.51733 38.752 8.752 37.92C9.008 37.1093 9.2 36.1493 9.328 35.04C9.456 33.9093 9.52 32.6293 9.52 31.2C9.52 29.3653 9.43467 27.6267 9.264 25.984C9.09333 24.32 8.90133 22.752 8.688 21.28L14.128 20.704H14.48C14.672 22.1547 14.832 23.7547 14.96 25.504C15.088 27.2533 15.152 29.024 15.152 30.816C15.152 33.2693 14.9067 35.3493 14.416 37.056C13.9253 38.784 13.2107 40.1813 12.272 41.248C11.3547 42.3147 10.2347 43.0933 8.912 43.584C7.61067 44.0747 6.13867 44.32 4.496 44.32C3.94133 44.32 3.35467 44.2773 2.736 44.192C2.13867 44.128 1.63733 44.0533 1.232 43.968C0.805333 43.904 0.592 43.872 0.592 43.872V43.552L2.064 39.136ZM18.3918 14.736V12.624L26.5838 9.968H26.9038V12.08L18.7438 14.736H18.3918ZM20.3118 8.56C19.6718 8.56 19.1064 8.4 18.6158 8.08C18.1251 7.76 17.7304 7.30133 17.4318 6.704C17.1544 6.08533 17.0158 5.33867 17.0158 4.464V2.448L19.2238 2.192H19.5758V4.272C19.5758 5.04 19.6398 5.59466 19.7678 5.936C19.9171 6.256 20.1198 6.448 20.3758 6.512C20.6531 6.55467 20.9624 6.56533 21.3038 6.544L20.5677 6.928C20.7598 6.672 20.8771 6.26667 20.9198 5.712C20.9838 5.136 21.0158 4.53866 21.0158 3.92V2.672L23.1278 2.416H23.4478V3.568C23.4478 3.90933 23.4264 4.22933 23.3838 4.528C23.3624 4.82666 23.2771 5.05066 23.1278 5.2L22.9998 4.144C23.1704 4.44267 23.3624 4.67733 23.5758 4.848C23.8104 5.01866 24.0664 5.136 24.3438 5.2C24.6424 5.264 24.9518 5.296 25.2718 5.296L24.4718 5.808C24.5784 5.65866 24.6851 5.456 24.7917 5.2C24.9198 4.92267 25.0264 4.51733 25.1118 3.984C25.1971 3.45067 25.2398 2.72533 25.2398 1.808V1.168L27.4478 0.911999H27.7998V1.296C27.7998 2.93866 27.6291 4.21866 27.2878 5.136C26.9678 6.05333 26.5518 6.69333 26.0398 7.056C25.5278 7.39733 24.9838 7.568 24.4078 7.568C23.9384 7.568 23.5224 7.472 23.1598 7.28C22.8184 7.088 22.5518 6.91733 22.3598 6.768L22.9678 6.544C22.6904 7.26933 22.3064 7.792 21.8158 8.112C21.3464 8.41067 20.8451 8.56 20.3118 8.56ZM18.86 36L18.892 31.872L19.532 31.232H46.508C48.0013 31.232 49.0253 31.072 49.58 30.752C50.1347 30.4107 50.412 29.8773 50.412 29.152C50.412 28.512 50.2627 27.8613 49.964 27.2C49.6867 26.5387 49.356 26.016 48.972 25.632L51.308 25.824C50.412 26.0373 49.644 26.1973 49.004 26.304C48.364 26.4107 47.7667 26.4853 47.212 26.528C46.6787 26.5707 46.0813 26.592 45.42 26.592H25.644C24.6413 26.592 23.7773 26.3253 23.052 25.792C22.348 25.2373 21.932 24.2773 21.804 22.912L34.796 11.232H35.116L37.324 14.624L27.436 23.296L26.636 21.824H46.412C47.4147 21.824 48.4067 21.8027 49.388 21.76C50.3693 21.696 51.18 21.5893 51.82 21.44H52.204C52.7373 21.9307 53.2813 22.5813 53.836 23.392C54.3907 24.2027 54.8707 25.1093 55.276 26.112C55.6813 27.1147 55.884 28.16 55.884 29.248C55.884 30.144 55.7347 30.9973 55.436 31.808C55.1373 32.6187 54.6253 33.344 53.9 33.984C53.196 34.6027 52.2467 35.0933 51.052 35.456C49.8573 35.8187 48.3427 36 46.508 36H18.86ZM65.3605 10.736V8.624L73.5525 5.968H73.8725V8.08L65.7125 10.736H65.3605ZM69.8178 36V31.232H83.1938V35.36L82.5538 36H69.8178ZM58.7458 35.648L60.4418 31.232H71.0978C72.4418 31.232 73.3804 31.0507 73.9138 30.688C74.4684 30.304 74.7458 29.7173 74.7458 28.928C74.7458 28.288 74.5964 27.68 74.2978 27.104C73.9991 26.5067 73.6684 26.016 73.3058 25.632L75.6098 25.792C74.7351 25.984 73.9778 26.1333 73.3378 26.24C72.6978 26.3467 72.1004 26.4213 71.5458 26.464C70.9911 26.5067 70.3938 26.528 69.7538 26.528H68.5058C67.8658 26.528 67.1404 26.5067 66.3298 26.464C65.5404 26.4213 64.7404 26.3253 63.9298 26.176C63.1404 26.0267 62.3831 25.8027 61.6578 25.504L63.0338 21.12H63.3538C64.2711 21.3973 65.2951 21.5893 66.4258 21.696C67.5564 21.7813 68.6444 21.824 69.6898 21.824H70.7138C71.7378 21.824 72.7298 21.8027 73.6898 21.76C74.6711 21.696 75.4818 21.5893 76.1218 21.44H76.5058C77.0391 21.9307 77.5724 22.5493 78.1058 23.296C78.6604 24.0213 79.1298 24.8213 79.5138 25.696C79.8978 26.5707 80.0898 27.456 80.0898 28.352C80.0898 29.4187 79.8444 30.4213 79.3538 31.36C78.8631 32.2987 78.0418 33.1093 76.8898 33.792L75.8018 35.424C75.2684 35.616 74.6711 35.7653 74.0098 35.872C73.3484 35.9573 72.6124 36 71.8018 36H58.7458V35.648ZM70.1378 18.816C69.4551 18.816 68.8578 18.592 68.3458 18.144C67.8551 17.696 67.6098 17.0773 67.6098 16.288C67.6098 15.4773 67.8551 14.8587 68.3458 14.432C68.8578 13.984 69.4551 13.76 70.1378 13.76C70.8631 13.76 71.4711 13.984 71.9618 14.432C72.4524 14.8587 72.6978 15.4773 72.6978 16.288C72.6978 17.0773 72.4524 17.696 71.9618 18.144C71.4711 18.592 70.8631 18.816 70.1378 18.816ZM89.3293 7.736V5.624L97.5213 2.968H97.8413V5.08L89.6813 7.736H89.3293ZM83.1875 31.232H89.4275L88.2115 31.968C87.2942 31.264 86.5155 30.3787 85.8755 29.312C85.2568 28.224 84.9475 26.976 84.9475 25.568C84.9475 23.968 85.3422 22.6027 86.1315 21.472C86.9208 20.32 88.0088 19.4347 89.3955 18.816C90.8035 18.1973 92.4142 17.888 94.2275 17.888C95.3155 17.888 96.4995 18.0053 97.7795 18.24C99.0595 18.4533 100.329 18.7733 101.588 19.2L101.716 19.456C101.63 19.84 101.566 20.352 101.524 20.992C101.481 21.632 101.438 22.2827 101.396 22.944C101.374 23.6053 101.364 24.1493 101.364 24.576V34.976L101.236 35.232C100.596 35.488 99.8062 35.68 98.8675 35.808C97.9288 35.936 96.7875 36 95.4435 36H82.5475V31.872L83.1875 31.232ZM90.4835 25.728C90.4835 26.7093 90.7608 27.648 91.3155 28.544C91.8915 29.4187 92.6915 30.144 93.7155 30.72C94.7395 31.2747 95.9235 31.552 97.2675 31.552L95.7315 33.408V25.728C95.7315 24.8747 95.7742 24.1387 95.8595 23.52C95.9448 22.9013 96.0622 22.3253 96.2115 21.792L96.7235 23.008C96.5102 22.944 96.2648 22.8693 95.9875 22.784C95.7315 22.6987 95.4328 22.624 95.0915 22.56C94.7715 22.4747 94.3982 22.432 93.9715 22.432C92.8622 22.432 91.9982 22.7627 91.3795 23.424C90.7822 24.064 90.4835 24.832 90.4835 25.728ZM94.1315 16C93.4275 16 92.8302 15.776 92.3395 15.328C91.8488 14.88 91.6035 14.2507 91.6035 13.44C91.6035 12.6293 91.8488 12.0107 92.3395 11.584C92.8302 11.136 93.4275 10.912 94.1315 10.912C94.8355 10.912 95.4328 11.136 95.9235 11.584C96.4142 12.0107 96.6595 12.6293 96.6595 13.44C96.6595 14.2507 96.4142 14.88 95.9235 15.328C95.4328 15.776 94.8355 16 94.1315 16Z" fill="white"/>
</svg>
